<?xml version="1.0" encoding="UTF-8" standalone="no"?>
<!DOCTYPE svg PUBLIC "-//W3C//DTD SVG 1.1//EN"
 "http://www.w3.org/Graphics/SVG/1.1/DTD/svg11.dtd">
<!-- Generated by graphviz version 2.43.0 (0)
 -->
<!-- Title: architecture_overview Pages: 1 -->
<svg width="1685pt" height="689pt"
 viewBox="0.00 0.00 1684.50 689.00" xmlns="http://www.w3.org/2000/svg" xmlns:xlink="http://www.w3.org/1999/xlink">
<g id="graph0" class="graph" transform="scale(1 1) rotate(0) translate(4 685)">
<title>architecture_overview</title>
<polygon fill="white" stroke="transparent" points="-4,4 -4,-685 1680.5,-685 1680.5,4 -4,4"/>
<text text-anchor="middle" x="838.25" y="-661" font-family="Arial" font-size="20.00">Architecture Overview: GKE + DWS H100 &#45;&gt; vLLM + JupyterHub</text>
<g id="clust1" class="cluster">
<title>cluster_project</title>
<path fill="#e8f0fe" stroke="#1a73e8" d="M20,-8C20,-8 1171,-8 1171,-8 1177,-8 1183,-14 1183,-20 1183,-20 1183,-631 1183,-631 1183,-637 1177,-643 1171,-643 1171,-643 20,-643 20,-643 14,-643 8,-637 8,-631 8,-631 8,-20 8,-20 8,-14 14,-8 20,-8"/>
<text text-anchor="middle" x="595.5" y="-627.8" font-family="Arial" font-size="14.00" fill="#1a73e8">GCP Project: hdlab&#45;elideng (Region: us&#45;central1)</text>
</g>
<g id="clust2" class="cluster">
<title>cluster_vpc</title>
<path fill="#f0f4ff" stroke="#1a73e8" d="M28,-16C28,-16 1163,-16 1163,-16 1169,-16 1175,-22 1175,-28 1175,-28 1175,-600 1175,-600 1175,-606 1169,-612 1163,-612 1163,-612 28,-612 28,-612 22,-612 16,-606 16,-600 16,-600 16,-28 16,-28 16,-22 22,-16 28,-16"/>
<text text-anchor="middle" x="595.5" y="-597.6" font-family="Arial" font-size="13.00" fill="#1a73e8">VPC&#45;internal Network (10.128.0.0/16)</text>
</g>
<g id="clust3" class="cluster">
<title>cluster_gke</title>
<path fill="#ffffff" stroke="#1a73e8" d="M36,-24C36,-24 1155,-24 1155,-24 1161,-24 1167,-30 1167,-36 1167,-36 1167,-428 1167,-428 1167,-434 1161,-440 1155,-440 1155,-440 36,-440 36,-440 30,-440 24,-434 24,-428 24,-428 24,-36 24,-36 24,-30 30,-24 36,-24"/>
<text text-anchor="middle" x="595.5" y="-425.6" font-family="Arial" font-size="13.00" fill="#1a73e8">GKE Cluster: hypercomputer&#45;a3&#45;cluster</text>
</g>
<g id="clust4" class="cluster">
<title>cluster_system</title>
<path fill="#f5f5f5" stroke="#666666" d="M427,-324C427,-324 840,-324 840,-324 846,-324 852,-330 852,-336 852,-336 852,-398 852,-398 852,-404 846,-410 840,-410 840,-410 427,-410 427,-410 421,-410 415,-404 415,-398 415,-398 415,-336 415,-336 415,-330 421,-324 427,-324"/>
<text text-anchor="middle" x="633.5" y="-396.4" font-family="Arial" font-size="12.00" fill="#000000">Node Pool: system</text>
<text text-anchor="middle" x="633.5" y="-383.4" font-family="Arial" font-size="12.00" fill="#000000">(e2&#45;standard, CPU&#45;only, always&#45;on)</text>
</g>
<g id="clust5" class="cluster">
<title>cluster_a3pool</title>
<path fill="#fff3e0" stroke="#ff6f00" d="M44,-32C44,-32 1147,-32 1147,-32 1153,-32 1159,-38 1159,-44 1159,-44 1159,-304 1159,-304 1159,-310 1153,-316 1147,-316 1147,-316 44,-316 44,-316 38,-316 32,-310 32,-304 32,-304 32,-44 32,-44 32,-38 38,-32 44,-32"/>
<text text-anchor="middle" x="595.5" y="-302.4" font-family="Arial" font-size="12.00" fill="#000000">Node Pool: a3&#45;h100&#45;dws&#45;pool</text>
<text text-anchor="middle" x="595.5" y="-289.4" font-family="Arial" font-size="12.00" fill="#000000">(a3&#45;highgpu&#45;8g, DWS Flex&#45;Start, autoscale 0&#45;&gt;N)</text>
<text text-anchor="middle" x="595.5" y="-276.4" font-family="Arial" font-size="12.00" fill="#000000">Taints: nvidia.com/gpu + cloud.google.com/gke&#45;queued</text>
</g>
<g id="clust6" class="cluster">
<title>cluster_a3node</title>
<path fill="#ffe0b2" stroke="#ff6f00" d="M52,-40C52,-40 1139,-40 1139,-40 1145,-40 1151,-46 1151,-52 1151,-52 1151,-249 1151,-249 1151,-255 1145,-261 1139,-261 1139,-261 52,-261 52,-261 46,-261 40,-255 40,-249 40,-249 40,-52 40,-52 40,-46 46,-40 52,-40"/>
<text text-anchor="middle" x="595.5" y="-248.2" font-family="Arial" font-size="11.00" fill="#000000">A3 Node: gke&#45;hypercomputer&#45;a3&#45;a3&#45;h100&#45;dws&#45;pool&#45;...&#45;hhp6</text>
<text text-anchor="middle" x="595.5" y="-236.2" font-family="Arial" font-size="11.00" fill="#000000">(zone: us&#45;central1&#45;a, 8x H100 80GB, NVLink/NVSwitch)</text>
<text text-anchor="middle" x="595.5" y="-224.2" font-family="Arial" font-size="11.00" fill="#000000">Label: cloud.google.com/gke&#45;accelerator=nvidia&#45;h100&#45;80gb</text>
</g>
<g id="clust7" class="cluster">
<title>cluster_pvc</title>
<path fill="#d1c4e9" stroke="#512da8" d="M999,-48C999,-48 1131,-48 1131,-48 1137,-48 1143,-54 1143,-60 1143,-60 1143,-197 1143,-197 1143,-203 1137,-209 1131,-209 1131,-209 999,-209 999,-209 993,-209 987,-203 987,-197 987,-197 987,-60 987,-60 987,-54 993,-48 999,-48"/>
<text text-anchor="middle" x="1065" y="-196.2" font-family="Arial" font-size="11.00" fill="#000000">Persistent Disks</text>
</g>
<g id="clust8" class="cluster">
<title>cluster_dws</title>
<path fill="#fff9c4" stroke="#f57f17" d="M828,-48C828,-48 962,-48 962,-48 968,-48 974,-54 974,-60 974,-60 974,-197 974,-197 974,-203 968,-209 962,-209 962,-209 828,-209 828,-209 822,-209 816,-203 816,-197 816,-197 816,-60 816,-60 816,-54 822,-48 828,-48"/>
<text text-anchor="middle" x="895" y="-196.2" font-family="Arial" font-size="11.00" fill="#000000">DWS Provisioning</text>
</g>
<!-- users -->
<g id="node1" class="node">
<title>users</title>
<path fill="#ffffff" stroke="#666666" d="M571,-582C571,-582 475,-582 475,-582 469,-582 463,-576 463,-570 463,-570 463,-547 463,-547 463,-541 469,-535 475,-535 475,-535 571,-535 571,-535 577,-535 583,-541 583,-547 583,-547 583,-570 583,-570 583,-576 577,-582 571,-582"/>
<text text-anchor="middle" x="523" y="-568.4" font-family="Arial" font-size="12.00">VPC&#45;internal Users</text>
<text text-anchor="middle" x="523" y="-555.4" font-family="Arial" font-size="12.00">(clients, notebooks,</text>
<text text-anchor="middle" x="523" y="-542.4" font-family="Arial" font-size="12.00">OpenAI SDK)</text>
</g>
<!-- inf_lb -->
<g id="node2" class="node">
<title>inf_lb</title>
<path fill="#4caf50" stroke="#2e7d32" d="M496.5,-492C496.5,-492 419.5,-492 419.5,-492 413.5,-492 407.5,-486 407.5,-480 407.5,-480 407.5,-460 407.5,-460 407.5,-454 413.5,-448 419.5,-448 419.5,-448 496.5,-448 496.5,-448 502.5,-448 508.5,-454 508.5,-460 508.5,-460 508.5,-480 508.5,-480 508.5,-486 502.5,-492 496.5,-492"/>
<text text-anchor="middle" x="458" y="-479.2" font-family="Arial" font-size="11.00" fill="#ffffff">Inference LB</text>
<text text-anchor="middle" x="458" y="-467.2" font-family="Arial" font-size="11.00" fill="#ffffff">10.128.0.43:8000</text>
<text text-anchor="middle" x="458" y="-455.2" font-family="Arial" font-size="11.00" fill="#ffffff">(Internal)</text>
</g>
<!-- users&#45;&gt;inf_lb -->
<g id="edge1" class="edge">
<title>users&#45;&gt;inf_lb</title>
<path fill="none" stroke="#333333" d="M505.92,-534.77C498.01,-524.24 488.51,-511.6 480.06,-500.36"/>
<polygon fill="#333333" stroke="#333333" points="482.65,-497.98 473.85,-492.09 477.06,-502.19 482.65,-497.98"/>
</g>
<!-- jh_lb -->
<g id="node3" class="node">
<title>jh_lb</title>
<path fill="#4caf50" stroke="#2e7d32" d="M756.5,-492C756.5,-492 679.5,-492 679.5,-492 673.5,-492 667.5,-486 667.5,-480 667.5,-480 667.5,-460 667.5,-460 667.5,-454 673.5,-448 679.5,-448 679.5,-448 756.5,-448 756.5,-448 762.5,-448 768.5,-454 768.5,-460 768.5,-460 768.5,-480 768.5,-480 768.5,-486 762.5,-492 756.5,-492"/>
<text text-anchor="middle" x="718" y="-479.2" font-family="Arial" font-size="11.00" fill="#ffffff">JupyterHub LB</text>
<text text-anchor="middle" x="718" y="-467.2" font-family="Arial" font-size="11.00" fill="#ffffff">10.128.15.234:80</text>
<text text-anchor="middle" x="718" y="-455.2" font-family="Arial" font-size="11.00" fill="#ffffff">(Internal)</text>
</g>
<!-- users&#45;&gt;jh_lb -->
<g id="edge2" class="edge">
<title>users&#45;&gt;jh_lb</title>
<path fill="none" stroke="#333333" d="M573.72,-535C600.59,-523.08 633.67,-508.41 661.37,-496.12"/>
<polygon fill="#333333" stroke="#333333" points="662.82,-499.31 670.54,-492.05 659.98,-492.91 662.82,-499.31"/>
</g>
<!-- vllm -->
<g id="node8" class="node">
<title>vllm</title>
<path fill="#ffcc80" stroke="#e65100" d="M545,-191C545,-191 413,-191 413,-191 407,-191 401,-185 401,-179 401,-179 401,-147 401,-147 401,-141 407,-135 413,-135 413,-135 545,-135 545,-135 551,-135 557,-141 557,-147 557,-147 557,-179 557,-179 557,-185 551,-191 545,-191"/>
<text text-anchor="middle" x="479" y="-178.2" font-family="Arial" font-size="11.00">vLLM Pod (ns: inference)</text>
<text text-anchor="middle" x="479" y="-166.2" font-family="Arial" font-size="11.00">Qwen3&#45;32B</text>
<text text-anchor="middle" x="479" y="-154.2" font-family="Arial" font-size="11.00">v0.8.4, TP=2</text>
<text text-anchor="middle" x="479" y="-142.2" font-family="Arial" font-size="11.00">Uses 2 H100s (~77GB each)</text>
</g>
<!-- inf_lb&#45;&gt;vllm -->
<g id="edge3" class="edge">
<title>inf_lb&#45;&gt;vllm</title>
<path fill="none" stroke="#333333" d="M413.83,-447.64C411.59,-445.32 409.6,-442.78 408,-440 382.27,-395.33 397.31,-374.44 408,-324 411.76,-306.24 417.64,-288.05 424.43,-270.6"/>
<polygon fill="#333333" stroke="#333333" points="427.81,-271.58 428.3,-261 421.32,-268.97 427.81,-271.58"/>
</g>
<!-- hub -->
<g id="node4" class="node">
<title>hub</title>
<path fill="#e0e0e0" stroke="#666666" d="M832,-368C832,-368 734,-368 734,-368 728,-368 722,-362 722,-356 722,-356 722,-344 722,-344 722,-338 728,-332 734,-332 734,-332 832,-332 832,-332 838,-332 844,-338 844,-344 844,-344 844,-356 844,-356 844,-362 838,-368 832,-368"/>
<text text-anchor="middle" x="783" y="-353.2" font-family="Arial" font-size="11.00">JupyterHub hub/proxy</text>
<text text-anchor="middle" x="783" y="-341.2" font-family="Arial" font-size="11.00">(ns: jupyter)</text>
</g>
<!-- jh_lb&#45;&gt;hub -->
<g id="edge4" class="edge">
<title>jh_lb&#45;&gt;hub</title>
<path fill="none" stroke="#333333" d="M729.62,-447.9C740.56,-428.04 756.98,-398.23 768.72,-376.93"/>
<polygon fill="#333333" stroke="#333333" points="771.83,-378.54 773.59,-368.09 765.7,-375.16 771.83,-378.54"/>
</g>
<!-- jupyter -->
<g id="node9" class="node">
<title>jupyter</title>
<path fill="#ffcc80" stroke="#e65100" d="M796,-191C796,-191 598,-191 598,-191 592,-191 586,-185 586,-179 586,-179 586,-147 586,-147 586,-141 592,-135 598,-135 598,-135 796,-135 796,-135 802,-135 808,-141 808,-147 808,-147 808,-179 808,-179 808,-185 802,-191 796,-191"/>
<text text-anchor="middle" x="697" y="-178.2" font-family="Arial" font-size="11.00">Jupyter Notebook Pods (ns: jupyter)</text>
<text text-anchor="middle" x="697" y="-166.2" font-family="Arial" font-size="11.00">PyTorch CUDA12</text>
<text text-anchor="middle" x="697" y="-154.2" font-family="Arial" font-size="11.00">GPU profile: 1x H100</text>
<text text-anchor="middle" x="697" y="-142.2" font-family="Arial" font-size="11.00">Uses up to ~6 H100s (per&#45;user notebooks)</text>
</g>
<!-- hub&#45;&gt;jupyter -->
<g id="edge5" class="edge">
<title>hub&#45;&gt;jupyter</title>
<path fill="none" stroke="#666666" stroke-dasharray="5,2" d="M775.06,-331.93C761.2,-302.12 732.31,-239.96 713.83,-200.2"/>
<polygon fill="#666666" stroke="#666666" points="716.99,-198.69 709.6,-191.1 710.64,-201.64 716.99,-198.69"/>
</g>
<!-- kueue -->
<g id="node5" class="node">
<title>kueue</title>
<path fill="#e0e0e0" stroke="#666666" d="M681,-368C681,-368 651,-368 651,-368 645,-368 639,-362 639,-356 639,-356 639,-344 639,-344 639,-338 645,-332 651,-332 651,-332 681,-332 681,-332 687,-332 693,-338 693,-344 693,-344 693,-356 693,-356 693,-362 687,-368 681,-368"/>
<text text-anchor="middle" x="666" y="-347.2" font-family="Arial" font-size="11.00">Kueue</text>
</g>
<!-- dcgm -->
<g id="node6" class="node">
<title>dcgm</title>
<path fill="#e0e0e0" stroke="#666666" d="M598,-368C598,-368 568,-368 568,-368 562,-368 556,-362 556,-356 556,-356 556,-344 556,-344 556,-338 562,-332 568,-332 568,-332 598,-332 598,-332 604,-332 610,-338 610,-344 610,-344 610,-356 610,-356 610,-362 604,-368 598,-368"/>
<text text-anchor="middle" x="583" y="-347.2" font-family="Arial" font-size="11.00">DCGM</text>
</g>
<!-- sysworkloads -->
<g id="node7" class="node">
<title>sysworkloads</title>
<path fill="#e0e0e0" stroke="#666666" d="M515,-368C515,-368 435,-368 435,-368 429,-368 423,-362 423,-356 423,-356 423,-344 423,-344 423,-338 429,-332 435,-332 435,-332 515,-332 515,-332 521,-332 527,-338 527,-344 527,-344 527,-356 527,-356 527,-362 521,-368 515,-368"/>
<text text-anchor="middle" x="475" y="-347.2" font-family="Arial" font-size="11.00">System workloads</text>
</g>
<!-- holder -->
<g id="node10" class="node">
<title>holder</title>
<path fill="#e0e0e0" stroke="#666666" stroke-dasharray="5,2" d="M359.5,-191C359.5,-191 60.5,-191 60.5,-191 54.5,-191 48.5,-185 48.5,-179 48.5,-179 48.5,-147 48.5,-147 48.5,-141 54.5,-135 60.5,-135 60.5,-135 359.5,-135 359.5,-135 365.5,-135 371.5,-141 371.5,-147 371.5,-147 371.5,-179 371.5,-179 371.5,-185 365.5,-191 359.5,-191"/>
<text text-anchor="middle" x="210" y="-178.2" font-family="Arial" font-size="11.00">Capacity Holder: a3&#45;holder&#45;zone&#45;a</text>
<text text-anchor="middle" x="210" y="-166.2" font-family="Arial" font-size="11.00">(ns: default, pause pod with consume&#45;provisioning&#45;request)</text>
<text text-anchor="middle" x="210" y="-154.2" font-family="Arial" font-size="11.00">Requests 8 GPUs when vLLM not running (currently: 0 replicas)</text>
<text text-anchor="middle" x="210" y="-142.2" font-family="Arial" font-size="11.00">Prevents idle reclaim during 7&#45;day DWS window</text>
</g>
<!-- pvc_hf -->
<g id="node11" class="node">
<title>pvc_hf</title>
<path fill="#b39ddb" stroke="#512da8" d="M1109.5,-181C1109.5,-181 1020.5,-181 1020.5,-181 1014.5,-181 1008.5,-175 1008.5,-169 1008.5,-169 1008.5,-157 1008.5,-157 1008.5,-151 1014.5,-145 1020.5,-145 1020.5,-145 1109.5,-145 1109.5,-145 1115.5,-145 1121.5,-151 1121.5,-157 1121.5,-157 1121.5,-169 1121.5,-169 1121.5,-175 1115.5,-181 1109.5,-181"/>
<text text-anchor="middle" x="1065" y="-160.5" font-family="Arial" font-size="10.00">hf&#45;cache PVC (150Gi)</text>
</g>
<!-- pvc_home -->
<g id="node12" class="node">
<title>pvc_home</title>
<path fill="#b39ddb" stroke="#512da8" d="M1123,-92C1123,-92 1007,-92 1007,-92 1001,-92 995,-86 995,-80 995,-80 995,-68 995,-68 995,-62 1001,-56 1007,-56 1007,-56 1123,-56 1123,-56 1129,-56 1135,-62 1135,-68 1135,-68 1135,-80 1135,-80 1135,-86 1129,-92 1123,-92"/>
<text text-anchor="middle" x="1065" y="-71.5" font-family="Arial" font-size="10.00">User home PVCs (20Gi ea.)</text>
</g>
<!-- pvc_hf&#45;&gt;pvc_home -->
<!-- provreq -->
<g id="node13" class="node">
<title>provreq</title>
<path fill="#fff59d" stroke="#f57f17" d="M938,-181C938,-181 852,-181 852,-181 846,-181 840,-175 840,-169 840,-169 840,-157 840,-157 840,-151 846,-145 852,-145 852,-145 938,-145 938,-145 944,-145 950,-151 950,-157 950,-157 950,-169 950,-169 950,-175 944,-181 938,-181"/>
<text text-anchor="middle" x="895" y="-166" font-family="Arial" font-size="10.00">ProvisioningRequest:</text>
<text text-anchor="middle" x="895" y="-155" font-family="Arial" font-size="10.00">a3&#45;h100&#45;req&#45;zone&#45;a</text>
</g>
<!-- computeeng -->
<g id="node14" class="node">
<title>computeeng</title>
<path fill="#fff59d" stroke="#f57f17" d="M953.5,-92C953.5,-92 836.5,-92 836.5,-92 830.5,-92 824.5,-86 824.5,-80 824.5,-80 824.5,-68 824.5,-68 824.5,-62 830.5,-56 836.5,-56 836.5,-56 953.5,-56 953.5,-56 959.5,-56 965.5,-62 965.5,-68 965.5,-68 965.5,-80 965.5,-80 965.5,-86 959.5,-92 953.5,-92"/>
<text text-anchor="middle" x="895" y="-71.5" font-family="Arial" font-size="10.00">&#45;&gt; Compute Engine capacity</text>
</g>
<!-- provreq&#45;&gt;computeeng -->
<!-- footer -->
<g id="node15" class="node">
<title>footer</title>
<text text-anchor="middle" x="1434" y="-555.7" font-family="Arial" font-size="11.00">7&#45;day DWS Flex&#45;Start cap (expires ~2026&#45;07&#45;23) | House rule: never leave GPU node idle/unheld</text>
</g>
</g>
</svg>
