<?xml version="1.0" encoding="UTF-8" standalone="no"?>
<!DOCTYPE svg PUBLIC "-//W3C//DTD SVG 1.1//EN"
 "http://www.w3.org/Graphics/SVG/1.1/DTD/svg11.dtd">
<!-- Generated by graphviz version 2.43.0 (0)
 -->
<!-- Title: dws_lifecycle Pages: 1 -->
<svg width="1780pt" height="378pt"
 viewBox="0.00 0.00 1780.00 378.00" xmlns="http://www.w3.org/2000/svg" xmlns:xlink="http://www.w3.org/1999/xlink">
<g id="graph0" class="graph" transform="scale(1 1) rotate(0) translate(4 374)">
<title>dws_lifecycle</title>
<polygon fill="white" stroke="transparent" points="-4,4 -4,-374 1776,-374 1776,4 -4,4"/>
<text text-anchor="middle" x="886" y="-350" font-family="Arial" font-size="20.00">DWS Flex&#45;Start Lifecycle: ProvisioningRequest &#45;&gt; Node &#45;&gt; Holder/Workload &#45;&gt; Reclaim</text>
<g id="clust2" class="cluster">
<title>cluster_roles</title>
<path fill="#f5f5f5" stroke="#666666" d="M20,-72.5C20,-72.5 1240,-72.5 1240,-72.5 1246,-72.5 1252,-78.5 1252,-84.5 1252,-84.5 1252,-200.5 1252,-200.5 1252,-206.5 1246,-212.5 1240,-212.5 1240,-212.5 20,-212.5 20,-212.5 14,-212.5 8,-206.5 8,-200.5 8,-200.5 8,-84.5 8,-84.5 8,-78.5 14,-72.5 20,-72.5"/>
<text text-anchor="middle" x="630" y="-196.5" font-family="Arial" font-size="15.00">Key Roles and Annotations</text>
</g>
<g id="clust3" class="cluster">
<title>cluster_houserule</title>
<path fill="#e3f2fd" stroke="#1565c0" d="M1272,-65C1272,-65 1752,-65 1752,-65 1758,-65 1764,-71 1764,-77 1764,-77 1764,-208 1764,-208 1764,-214 1758,-220 1752,-220 1752,-220 1272,-220 1272,-220 1266,-220 1260,-214 1260,-208 1260,-208 1260,-77 1260,-77 1260,-71 1266,-65 1272,-65"/>
<text text-anchor="middle" x="1512" y="-204" font-family="Arial" font-size="15.00" fill="#1565c0">House Rule: Never Leave GPU Node Idle/Unheld</text>
</g>
<!-- s1 -->
<g id="node1" class="node">
<title>s1</title>
<path fill="#fff9c4" stroke="#f57f17" d="M184,-340C184,-340 56,-340 56,-340 50,-340 44,-334 44,-328 44,-328 44,-259 44,-259 44,-253 50,-247 56,-247 56,-247 184,-247 184,-247 190,-247 196,-253 196,-259 196,-259 196,-328 196,-328 196,-334 190,-340 184,-340"/>
<text text-anchor="middle" x="120" y="-327.2" font-family="Arial" font-size="11.00">ProvisioningRequest</text>
<text text-anchor="middle" x="120" y="-315.2" font-family="Arial" font-size="11.00">Submitted</text>
<text text-anchor="middle" x="120" y="-290.2" font-family="Arial" font-size="11.00">a3&#45;h100&#45;req&#45;zone&#45;a</text>
<text text-anchor="middle" x="120" y="-278.2" font-family="Arial" font-size="11.00">podSet: 1x a3&#45;highgpu&#45;8g</text>
<text text-anchor="middle" x="120" y="-266.2" font-family="Arial" font-size="11.00">Status: Accepted</text>
<text text-anchor="middle" x="120" y="-254.2" font-family="Arial" font-size="11.00">(queued&#45;provisioning.gke.io)</text>
</g>
<!-- s2 -->
<g id="node2" class="node">
<title>s2</title>
<path fill="#ffccbc" stroke="#d84315" d="M368.5,-340C368.5,-340 247.5,-340 247.5,-340 241.5,-340 235.5,-334 235.5,-328 235.5,-328 235.5,-259 235.5,-259 235.5,-253 241.5,-247 247.5,-247 247.5,-247 368.5,-247 368.5,-247 374.5,-247 380.5,-253 380.5,-259 380.5,-259 380.5,-328 380.5,-328 380.5,-334 374.5,-340 368.5,-340"/>
<text text-anchor="middle" x="308" y="-327.2" font-family="Arial" font-size="11.00">Queue / Capacity Wait</text>
<text text-anchor="middle" x="308" y="-302.2" font-family="Arial" font-size="11.00">Waiting for H100</text>
<text text-anchor="middle" x="308" y="-290.2" font-family="Arial" font-size="11.00">capacity in</text>
<text text-anchor="middle" x="308" y="-278.2" font-family="Arial" font-size="11.00">us&#45;central1&#45;a</text>
<text text-anchor="middle" x="308" y="-266.2" font-family="Arial" font-size="11.00">(Hours to days)</text>
<text text-anchor="middle" x="308" y="-254.2" font-family="Arial" font-size="11.00">Status: Provisioning=False</text>
</g>
<!-- s1&#45;&gt;s2 -->
<g id="edge1" class="edge">
<title>s1&#45;&gt;s2</title>
<path fill="none" stroke="#333333" stroke-width="2" d="M196.2,-293.5C205.79,-293.5 215.64,-293.5 225.33,-293.5"/>
<polygon fill="#333333" stroke="#333333" stroke-width="2" points="225.35,-297 235.35,-293.5 225.35,-290 225.35,-297"/>
<text text-anchor="middle" x="215.75" y="-299.7" font-family="Arial" font-size="11.00" fill="#666666">Wait</text>
</g>
<!-- s3 -->
<g id="node3" class="node">
<title>s3</title>
<path fill="#c8e6c9" stroke="#2e7d32" d="M674,-340C674,-340 532,-340 532,-340 526,-340 520,-334 520,-328 520,-328 520,-259 520,-259 520,-253 526,-247 532,-247 532,-247 674,-247 674,-247 680,-247 686,-253 686,-259 686,-259 686,-328 686,-328 686,-334 680,-340 674,-340"/>
<text text-anchor="middle" x="603" y="-327.2" font-family="Arial" font-size="11.00">Node Provisioned</text>
<text text-anchor="middle" x="603" y="-302.2" font-family="Arial" font-size="11.00">gke&#45;...&#45;hhp6</text>
<text text-anchor="middle" x="603" y="-290.2" font-family="Arial" font-size="11.00">8x H100 80GB</text>
<text text-anchor="middle" x="603" y="-278.2" font-family="Arial" font-size="11.00">Ready, joined cluster</text>
<text text-anchor="middle" x="603" y="-266.2" font-family="Arial" font-size="11.00">Status: Provisioned=True</text>
<text text-anchor="middle" x="603" y="-254.2" font-family="Arial" font-size="11.00">~10&#45;min booking window starts</text>
</g>
<!-- s2&#45;&gt;s3 -->
<g id="edge2" class="edge">
<title>s2&#45;&gt;s3</title>
<path fill="none" stroke="#333333" stroke-width="2" d="M380.54,-293.5C419.47,-293.5 467.89,-293.5 509.6,-293.5"/>
<polygon fill="#333333" stroke="#333333" stroke-width="2" points="509.77,-297 519.77,-293.5 509.77,-290 509.77,-297"/>
<text text-anchor="middle" x="450.25" y="-299.7" font-family="Arial" font-size="11.00" fill="#4caf50">Capacity!</text>
</g>
<!-- holder -->
<g id="node7" class="node">
<title>holder</title>
<path fill="#ffffff" stroke="#666666" d="M511.5,-179.5C511.5,-179.5 28.5,-179.5 28.5,-179.5 22.5,-179.5 16.5,-173.5 16.5,-167.5 16.5,-167.5 16.5,-92.5 16.5,-92.5 16.5,-86.5 22.5,-80.5 28.5,-80.5 28.5,-80.5 511.5,-80.5 511.5,-80.5 517.5,-80.5 523.5,-86.5 523.5,-92.5 523.5,-92.5 523.5,-167.5 523.5,-167.5 523.5,-173.5 517.5,-179.5 511.5,-179.5"/>
<text text-anchor="start" x="216" y="-165.2" font-family="Arial" font-weight="bold" font-size="11.00">Capacity Holder Pod</text>
<text text-anchor="start" x="27" y="-149.2" font-family="Arial" font-size="11.00">Purpose: Occupies node when no workload running (prevents reclaim)</text>
<text text-anchor="start" x="27" y="-135.2" font-family="Arial" font-weight="bold" font-size="11.00">Required annotations:</text>
<text text-anchor="start" x="27" y="-119.2" font-family="monospace" font-size="11.00">autoscaling.x&#45;k8s.io/consume&#45;provisioning&#45;request: a3&#45;h100&#45;req&#45;zone&#45;a</text>
<text text-anchor="start" x="27" y="-104.2" font-family="monospace" font-size="11.00">autoscaling.x&#45;k8s.io/provisioning&#45;class&#45;name: queued&#45;provisioning.gke.io</text>
<text text-anchor="start" x="27" y="-89.2" font-family="monospace" font-size="11.00">cluster&#45;autoscaler.kubernetes.io/safe&#45;to&#45;evict: &quot;false&quot;</text>
</g>
<!-- s2&#45;&gt;holder -->
<!-- s4 -->
<g id="node4" class="node">
<title>s4</title>
<path fill="#fff3e0" stroke="#ff6f00" d="M961.5,-340C961.5,-340 824.5,-340 824.5,-340 818.5,-340 812.5,-334 812.5,-328 812.5,-328 812.5,-259 812.5,-259 812.5,-253 818.5,-247 824.5,-247 824.5,-247 961.5,-247 961.5,-247 967.5,-247 973.5,-253 973.5,-259 973.5,-259 973.5,-328 973.5,-328 973.5,-334 967.5,-340 961.5,-340"/>
<text text-anchor="middle" x="893" y="-327.2" font-family="Arial" font-size="11.00">10&#45;Minute Booking Window</text>
<text text-anchor="middle" x="893" y="-302.2" font-family="Arial" font-size="11.00">Pod with</text>
<text text-anchor="middle" x="893" y="-290.2" font-family="Arial" font-size="11.00">consume&#45;provisioning&#45;request</text>
<text text-anchor="middle" x="893" y="-278.2" font-family="Arial" font-size="11.00">annotation MUST schedule</text>
<text text-anchor="middle" x="893" y="-266.2" font-family="Arial" font-size="11.00">OR node is reclaimed!</text>
<text text-anchor="middle" x="893" y="-254.2" font-family="Arial" font-size="11.00">(See bugfix 0002)</text>
</g>
<!-- s3&#45;&gt;s4 -->
<g id="edge3" class="edge">
<title>s3&#45;&gt;s4</title>
<path fill="none" stroke="#333333" stroke-width="2" d="M686.1,-293.5C722.36,-293.5 764.98,-293.5 802.08,-293.5"/>
<polygon fill="#333333" stroke="#333333" stroke-width="2" points="802.39,-297 812.39,-293.5 802.39,-290 802.39,-297"/>
<text text-anchor="middle" x="749.25" y="-299.7" font-family="Arial" font-size="11.00" fill="#ff6f00">Must land pod!</text>
</g>
<!-- s5 -->
<g id="node5" class="node">
<title>s5</title>
<path fill="#a5d6a7" stroke="#1b5e20" d="M1348,-340C1348,-340 1264,-340 1264,-340 1258,-340 1252,-334 1252,-328 1252,-328 1252,-259 1252,-259 1252,-253 1258,-247 1264,-247 1264,-247 1348,-247 1348,-247 1354,-247 1360,-253 1360,-259 1360,-259 1360,-328 1360,-328 1360,-334 1354,-340 1348,-340"/>
<text text-anchor="middle" x="1306" y="-327.2" font-family="Arial" font-size="11.00">Running / Held</text>
<text text-anchor="middle" x="1306" y="-302.2" font-family="Arial" font-size="11.00">Holder or workload</text>
<text text-anchor="middle" x="1306" y="-290.2" font-family="Arial" font-size="11.00">occupies node</text>
<text text-anchor="middle" x="1306" y="-278.2" font-family="Arial" font-size="11.00">safe&#45;to&#45;evict: false</text>
<text text-anchor="middle" x="1306" y="-266.2" font-family="Arial" font-size="11.00">Node stays up</text>
<text text-anchor="middle" x="1306" y="-254.2" font-family="Arial" font-size="11.00">(up to 7&#45;day cap)</text>
</g>
<!-- s4&#45;&gt;s5 -->
<g id="edge4" class="edge">
<title>s4&#45;&gt;s5</title>
<path fill="none" stroke="#333333" stroke-width="2" d="M973.61,-293.5C1051.92,-293.5 1169.29,-293.5 1241.58,-293.5"/>
<polygon fill="#333333" stroke="#333333" stroke-width="2" points="1241.9,-297 1251.9,-293.5 1241.9,-290 1241.9,-297"/>
<text text-anchor="middle" x="1112.75" y="-299.7" font-family="Arial" font-size="11.00" fill="#4caf50">Consumed!</text>
</g>
<!-- bugfix -->
<g id="node8" class="node">
<title>bugfix</title>
<path fill="#fff9c4" stroke="#f57f17" d="M1232,-164.5C1232,-164.5 554,-164.5 554,-164.5 548,-164.5 542,-158.5 542,-152.5 542,-152.5 542,-107.5 542,-107.5 542,-101.5 548,-95.5 554,-95.5 554,-95.5 1232,-95.5 1232,-95.5 1238,-95.5 1244,-101.5 1244,-107.5 1244,-107.5 1244,-152.5 1244,-152.5 1244,-158.5 1238,-164.5 1232,-164.5"/>
<text text-anchor="start" x="804" y="-150.2" font-family="Arial" font-weight="bold" font-size="11.00" fill="#f57f17">Bugfix 0002 &#45; Reclaim After 10min</text>
<text text-anchor="start" x="552" y="-134.2" font-family="Arial" font-size="11.00" fill="#d84315">Problem: Node provisioned then deleted ~15 minutes later</text>
<text text-anchor="start" x="552" y="-120.2" font-family="Arial" font-weight="bold" font-size="11.00">Root cause:</text>
<text text-anchor="start" x="616" y="-120.2" font-family="Arial" font-size="11.00"> No pod consumed the ProvisioningRequest inside the 10&#45;min booking window</text>
<text text-anchor="start" x="552" y="-105.2" font-family="Arial" font-weight="bold" font-size="11.00">Fix:</text>
<text text-anchor="start" x="572" y="-105.2" font-family="Arial" font-size="11.00"> Deploy holder WITH consume&#45;* annotations BEFORE request submitted (holder waits Pending, binds immediately when node provisions)</text>
</g>
<!-- s4&#45;&gt;bugfix -->
<!-- s6 -->
<g id="node6" class="node">
<title>s6</title>
<path fill="#ffcdd2" stroke="#b71c1c" d="M1543,-334C1543,-334 1445,-334 1445,-334 1439,-334 1433,-328 1433,-322 1433,-322 1433,-265 1433,-265 1433,-259 1439,-253 1445,-253 1445,-253 1543,-253 1543,-253 1549,-253 1555,-259 1555,-265 1555,-265 1555,-322 1555,-322 1555,-328 1549,-334 1543,-334"/>
<text text-anchor="middle" x="1494" y="-321.2" font-family="Arial" font-size="11.00">Reclaimed</text>
<text text-anchor="middle" x="1494" y="-296.2" font-family="Arial" font-size="11.00">7&#45;day cap reached</text>
<text text-anchor="middle" x="1494" y="-284.2" font-family="Arial" font-size="11.00">Node deleted by GKE</text>
<text text-anchor="middle" x="1494" y="-272.2" font-family="Arial" font-size="11.00">No holder can</text>
<text text-anchor="middle" x="1494" y="-260.2" font-family="Arial" font-size="11.00">prevent this</text>
</g>
<!-- s5&#45;&gt;s6 -->
<g id="edge5" class="edge">
<title>s5&#45;&gt;s6</title>
<path fill="none" stroke="#333333" stroke-width="2" d="M1360.13,-293.5C1379.7,-293.5 1402.11,-293.5 1422.92,-293.5"/>
<polygon fill="#333333" stroke="#333333" stroke-width="2" points="1422.99,-297 1432.99,-293.5 1422.99,-290 1422.99,-297"/>
<text text-anchor="middle" x="1396.5" y="-299.7" font-family="Arial" font-size="11.00" fill="#d84315">7 days max</text>
</g>
<!-- houserule -->
<g id="node9" class="node">
<title>houserule</title>
<path fill="#ffffff" stroke="#1565c0" d="M1744,-187C1744,-187 1280,-187 1280,-187 1274,-187 1268,-181 1268,-175 1268,-175 1268,-85 1268,-85 1268,-79 1274,-73 1280,-73 1280,-73 1744,-73 1744,-73 1750,-73 1756,-79 1756,-85 1756,-85 1756,-175 1756,-175 1756,-181 1750,-187 1744,-187"/>
<text text-anchor="start" x="1372.5" y="-173.2" font-family="Arial" font-weight="bold" font-size="11.00">The GPU node must ALWAYS have an occupying pod</text>
<text text-anchor="start" x="1278" y="-158.2" font-family="Arial" font-weight="bold" font-size="11.00">When vLLM or real workload is running:</text>
<text text-anchor="start" x="1488" y="-158.2" font-family="Arial" font-size="11.00"> Holder scaled to 0 replicas (workload holds the node)</text>
<text text-anchor="start" x="1278" y="-143.2" font-family="Arial" font-weight="bold" font-size="11.00">When no workload is running:</text>
<text text-anchor="start" x="1436" y="-143.2" font-family="Arial" font-size="11.00"> Holder IMMEDIATELY scaled to 1 replica (gap&#45;free handoff)</text>
<text text-anchor="start" x="1278" y="-128.2" font-family="Arial" font-weight="bold" font-size="11.00">Why:</text>
<text text-anchor="start" x="1278" y="-112.2" font-family="Arial" font-size="11.00">• H100 capacity is scarce &#45; took hours/days to obtain</text>
<text text-anchor="start" x="1278" y="-97.2" font-family="Arial" font-size="11.00">• Idle/unheld node &#45;&gt; autoscaler reclaims it &#45;&gt; you lose the GPUs</text>
<text text-anchor="start" x="1278" y="-82.2" font-family="Arial" font-size="11.00">• Cost is not a concern (you pay for 7&#45;day window regardless)</text>
</g>
<!-- s5&#45;&gt;houserule -->
<!-- footer -->
<g id="node10" class="node">
<title>footer</title>
<text text-anchor="middle" x="890" y="-15.2" font-family="Arial" font-size="11.00">Current deployment: Node provisioned ~2026&#45;07&#45;16, expires ~2026&#45;07&#45;23 (7&#45;day cap) | See deploy/ops/handoff.sh &amp; rearm&#45;holder.sh</text>
</g>
<!-- holder&#45;&gt;footer -->
<!-- houserule&#45;&gt;footer -->
</g>
</svg>
