<?xml version="1.0" encoding="UTF-8" standalone="no"?>
<!DOCTYPE svg PUBLIC "-//W3C//DTD SVG 1.1//EN"
 "http://www.w3.org/Graphics/SVG/1.1/DTD/svg11.dtd">
<!-- Generated by graphviz version 2.43.0 (0)
 -->
<!-- Title: gke_node_pools Pages: 1 -->
<svg width="824pt" height="445pt"
 viewBox="0.00 0.00 824.00 445.00" xmlns="http://www.w3.org/2000/svg" xmlns:xlink="http://www.w3.org/1999/xlink">
<g id="graph0" class="graph" transform="scale(1 1) rotate(0) translate(4 441)">
<title>gke_node_pools</title>
<polygon fill="white" stroke="transparent" points="-4,4 -4,-441 820,-441 820,4 -4,4"/>
<text text-anchor="middle" x="408" y="-417" font-family="Arial" font-size="20.00">GKE Cluster Node Pools: System (CPU) vs. A3 H100 (GPU/DWS)</text>
<g id="clust1" class="cluster">
<title>cluster_cluster</title>
<path fill="#e8f0fe" stroke="#1a73e8" d="M20,-8C20,-8 796,-8 796,-8 802,-8 808,-14 808,-20 808,-20 808,-387 808,-387 808,-393 802,-399 796,-399 796,-399 20,-399 20,-399 14,-399 8,-393 8,-387 8,-387 8,-20 8,-20 8,-14 14,-8 20,-8"/>
<text text-anchor="middle" x="408" y="-383" font-family="Arial" font-size="15.00" fill="#1a73e8">Cluster: hypercomputer&#45;a3&#45;cluster (us&#45;central1, project: hdlab&#45;elideng)</text>
</g>
<g id="clust2" class="cluster">
<title>cluster_system</title>
<path fill="#f5f5f5" stroke="#666666" d="M486,-89C486,-89 788,-89 788,-89 794,-89 800,-95 800,-101 800,-101 800,-345 800,-345 800,-351 794,-357 788,-357 788,-357 486,-357 486,-357 480,-357 474,-351 474,-345 474,-345 474,-101 474,-101 474,-95 480,-89 486,-89"/>
<text text-anchor="middle" x="637" y="-340.2" font-family="Arial" font-size="16.00" fill="#000000">Node Pool: system</text>
</g>
<g id="clust3" class="cluster">
<title>cluster_a3</title>
<path fill="#fff3e0" stroke="#ff6f00" d="M28,-80C28,-80 454,-80 454,-80 460,-80 466,-86 466,-92 466,-92 466,-354 466,-354 466,-360 460,-366 454,-366 454,-366 28,-366 28,-366 22,-366 16,-360 16,-354 16,-354 16,-92 16,-92 16,-86 22,-80 28,-80"/>
<text text-anchor="middle" x="241" y="-349.2" font-family="Arial" font-size="16.00" fill="#000000">Node Pool: a3&#45;h100&#45;dws&#45;pool</text>
</g>
<!-- system_cfg -->
<g id="node1" class="node">
<title>system_cfg</title>
<path fill="#ffffff" stroke="#666666" d="M780,-323C780,-323 494,-323 494,-323 488,-323 482,-317 482,-311 482,-311 482,-109 482,-109 482,-103 488,-97 494,-97 494,-97 780,-97 780,-97 786,-97 792,-103 792,-109 792,-109 792,-311 792,-311 792,-317 786,-323 780,-323"/>
<text text-anchor="start" x="600.5" y="-307.2" font-family="Arial" font-weight="bold" font-size="11.00">Configuration</text>
<text text-anchor="start" x="494" y="-289.2" font-family="Arial" font-weight="bold" font-size="11.00">Machine Type:</text>
<text text-anchor="start" x="570" y="-289.2" font-family="Arial" font-size="11.00"> e2&#45;standard (CPU&#45;only)</text>
<text text-anchor="start" x="494" y="-271.2" font-family="Arial" font-weight="bold" font-size="11.00">Scaling:</text>
<text text-anchor="start" x="537" y="-271.2" font-family="Arial" font-size="11.00"> Always&#45;on (not autoscaled); Min/Max: 3&#45;3 nodes</text>
<text text-anchor="start" x="494" y="-253.2" font-family="Arial" font-weight="bold" font-size="11.00">GPUs:</text>
<text text-anchor="start" x="528" y="-253.2" font-family="Arial" font-size="11.00"> None</text>
<text text-anchor="start" x="494" y="-235.2" font-family="Arial" font-weight="bold" font-size="11.00">Labels:</text>
<text text-anchor="start" x="533" y="-235.2" font-family="Arial" font-size="11.00"> Standard system labels</text>
<text text-anchor="start" x="494" y="-217.2" font-family="Arial" font-weight="bold" font-size="11.00">Taints:</text>
<text text-anchor="start" x="530" y="-217.2" font-family="Arial" font-size="11.00"> None (accepts all workloads)</text>
<text text-anchor="start" x="494" y="-199.2" font-family="Arial" font-weight="bold" font-size="11.00">Workloads:</text>
<text text-anchor="start" x="494" y="-180.2" font-family="Arial" font-size="11.00">• JupyterHub hub + proxy</text>
<text text-anchor="start" x="494" y="-162.2" font-family="Arial" font-size="11.00">• Kueue admission controller</text>
<text text-anchor="start" x="494" y="-144.2" font-family="Arial" font-size="11.00">• DCGM monitoring</text>
<text text-anchor="start" x="494" y="-126.2" font-family="Arial" font-size="11.00">• System controllers</text>
<text text-anchor="start" x="494" y="-109.2" font-family="Arial" font-weight="bold" font-size="11.00">Provisioning:</text>
<text text-anchor="start" x="565" y="-109.2" font-family="Arial" font-size="11.00"> Standard (on&#45;demand); No run&#45;duration cap</text>
</g>
<!-- note -->
<g id="node3" class="node">
<title>note</title>
<path fill="#fff9c4" stroke="#f57f17" d="M761.5,-52C761.5,-52 54.5,-52 54.5,-52 48.5,-52 42.5,-46 42.5,-40 42.5,-40 42.5,-28 42.5,-28 42.5,-22 48.5,-16 54.5,-16 54.5,-16 761.5,-16 761.5,-16 767.5,-16 773.5,-22 773.5,-28 773.5,-28 773.5,-40 773.5,-40 773.5,-46 767.5,-52 761.5,-52"/>
<text text-anchor="middle" x="408" y="-31.2" font-family="Arial" font-size="11.00">DWS Flex&#45;Start: 7&#45;day max run duration | 10&#45;min booking window after provisioning | Requires consuming pod with autoscaling.x&#45;k8s.io/* annotations</text>
</g>
<!-- system_cfg&#45;&gt;note -->
<!-- a3_cfg -->
<g id="node2" class="node">
<title>a3_cfg</title>
<path fill="#ffffff" stroke="#ff6f00" d="M446,-332C446,-332 36,-332 36,-332 30,-332 24,-326 24,-320 24,-320 24,-100 24,-100 24,-94 30,-88 36,-88 36,-88 446,-88 446,-88 452,-88 458,-94 458,-100 458,-100 458,-320 458,-320 458,-326 452,-332 446,-332"/>
<text text-anchor="start" x="204.5" y="-316.2" font-family="Arial" font-weight="bold" font-size="11.00">Configuration</text>
<text text-anchor="start" x="36" y="-298.2" font-family="Arial" font-weight="bold" font-size="11.00">Machine Type:</text>
<text text-anchor="start" x="112" y="-298.2" font-family="Arial" font-size="11.00"> a3&#45;highgpu&#45;8g (8x H100 80GB); NVLink/NVSwitch interconnect</text>
<text text-anchor="start" x="36" y="-280.2" font-family="Arial" font-weight="bold" font-size="11.00">Scaling:</text>
<text text-anchor="start" x="79" y="-280.2" font-family="Arial" font-size="11.00"> </text>
<text text-anchor="start" x="83" y="-280.2" font-family="Arial" font-size="11.00" fill="#ff6f00">DWS Flex&#45;Start autoscale 0&#45;&gt;N</text>
<text text-anchor="start" x="36" y="-261.2" font-family="Arial" font-size="11.00">Currently: 1 node (expires ~2026&#45;07&#45;23); can scale to 0 or provision more on&#45;demand</text>
<text text-anchor="start" x="36" y="-244.2" font-family="Arial" font-weight="bold" font-size="11.00">GPUs:</text>
<text text-anchor="start" x="70" y="-244.2" font-family="Arial" font-size="11.00"> </text>
<text text-anchor="start" x="74" y="-244.2" font-family="Arial" font-size="11.00" fill="#e65100">8x NVIDIA H100 80GB HBM3 per node</text>
<text text-anchor="start" x="265" y="-244.2" font-family="Arial" font-size="11.00">; ~81,559 MiB per GPU</text>
<text text-anchor="start" x="36" y="-226.2" font-family="Arial" font-weight="bold" font-size="11.00">Labels:</text>
<text text-anchor="start" x="75" y="-226.2" font-family="Arial" font-size="11.00"> cloud.google.com/gke&#45;accelerator: nvidia&#45;h100&#45;80gb</text>
<text text-anchor="start" x="36" y="-208.2" font-family="Arial" font-weight="bold" font-size="11.00">Taints:</text>
<text text-anchor="start" x="36" y="-189.2" font-family="Arial" font-size="11.00" fill="#ff6f00">• nvidia.com/gpu:NoSchedule</text>
<text text-anchor="start" x="36" y="-172.2" font-family="Arial" font-size="11.00" fill="#ff6f00">• cloud.google.com/gke&#45;queued:NoSchedule</text>
<text text-anchor="start" x="250" y="-172.2" font-family="Arial" font-size="11.00"> (pods must tolerate both)</text>
<text text-anchor="start" x="36" y="-154.2" font-family="Arial" font-weight="bold" font-size="11.00">Workloads:</text>
<text text-anchor="start" x="36" y="-135.2" font-family="Arial" font-size="11.00">• vLLM (2 GPUs, tensor&#45;parallel)</text>
<text text-anchor="start" x="36" y="-117.2" font-family="Arial" font-size="11.00">• Jupyter GPU notebooks (up to ~6 GPUs)</text>
<text text-anchor="start" x="36" y="-99.2" font-family="Arial" font-size="11.00">• Holder pod (8 GPUs when idle)</text>
</g>
<!-- a3_cfg&#45;&gt;note -->
</g>
</svg>
