<?xml version="1.0" encoding="UTF-8" standalone="no"?>
<!DOCTYPE svg PUBLIC "-//W3C//DTD SVG 1.1//EN"
 "http://www.w3.org/Graphics/SVG/1.1/DTD/svg11.dtd">
<!-- Generated by graphviz version 2.43.0 (0)
 -->
<!-- Title: inference_flow Pages: 1 -->
<svg width="1683pt" height="670pt"
 viewBox="0.00 0.00 1683.00 670.00" xmlns="http://www.w3.org/2000/svg" xmlns:xlink="http://www.w3.org/1999/xlink">
<g id="graph0" class="graph" transform="scale(1 1) rotate(0) translate(4 666)">
<title>inference_flow</title>
<polygon fill="white" stroke="transparent" points="-4,4 -4,-666 1679,-666 1679,4 -4,4"/>
<text text-anchor="middle" x="837.5" y="-642" font-family="Arial" font-size="20.00">Inference Request Flow: Client &#45;&gt; vLLM (Qwen3&#45;32B) &#45;&gt; Tensor&#45;Parallel H100s</text>
<g id="clust1" class="cluster">
<title>cluster_vllm</title>
<path fill="#fff3e0" stroke="#ff6f00" d="M1082.5,-8C1082.5,-8 1663,-8 1663,-8 1669,-8 1675,-14 1675,-20 1675,-20 1675,-376 1675,-376 1675,-382 1669,-388 1663,-388 1663,-388 1082.5,-388 1082.5,-388 1076.5,-388 1070.5,-382 1070.5,-376 1070.5,-376 1070.5,-20 1070.5,-20 1070.5,-14 1076.5,-8 1082.5,-8"/>
<text text-anchor="middle" x="1372.75" y="-372" font-family="Arial" font-size="15.00">vLLM Pod (ns: inference)</text>
</g>
<g id="clust2" class="cluster">
<title>cluster_gpus</title>
<path fill="#ffcc80" stroke="#bf360c" d="M1448,-16C1448,-16 1655,-16 1655,-16 1661,-16 1667,-22 1667,-28 1667,-28 1667,-343 1667,-343 1667,-349 1661,-355 1655,-355 1655,-355 1448,-355 1448,-355 1442,-355 1436,-349 1436,-343 1436,-343 1436,-28 1436,-28 1436,-22 1442,-16 1448,-16"/>
<text text-anchor="middle" x="1551.5" y="-340.6" font-family="Arial" font-size="13.00">2x NVIDIA H100 80GB GPUs</text>
<text text-anchor="middle" x="1551.5" y="-326.6" font-family="Arial" font-size="13.00">(Connected via NVLink on A3 node)</text>
</g>
<!-- client -->
<g id="node1" class="node">
<title>client</title>
<path fill="#ffffff" stroke="#666666" d="M374,-516C374,-516 272,-516 272,-516 266,-516 260,-510 260,-504 260,-504 260,-454 260,-454 260,-448 266,-442 272,-442 272,-442 374,-442 374,-442 380,-442 386,-448 386,-454 386,-454 386,-504 386,-504 386,-510 380,-516 374,-516"/>
<text text-anchor="middle" x="323" y="-502.4" font-family="Arial" font-size="12.00">Client</text>
<text text-anchor="middle" x="323" y="-475.4" font-family="Arial" font-size="12.00">OpenAI Python SDK</text>
<text text-anchor="middle" x="323" y="-462.4" font-family="Arial" font-size="12.00">or curl</text>
<text text-anchor="middle" x="323" y="-449.4" font-family="Arial" font-size="12.00">(inside VPC)</text>
</g>
<!-- request -->
<g id="node2" class="node">
<title>request</title>
<path fill="#f5f5f5" stroke="#666666" d="M927,-614C927,-614 764,-614 764,-614 758,-614 752,-608 752,-602 752,-602 752,-492 752,-492 752,-486 758,-480 764,-480 764,-480 927,-480 927,-480 933,-480 939,-486 939,-492 939,-492 939,-602 939,-602 939,-608 933,-614 927,-614"/>
<text text-anchor="start" x="807.5" y="-601.2" font-family="Arial" font-weight="bold" font-size="11.00">POST Request</text>
<text text-anchor="start" x="761.5" y="-586.2" font-family="monospace" font-size="11.00">POST /v1/chat/completions</text>
<text text-anchor="start" x="761.5" y="-572.2" font-family="monospace" font-size="11.00">{</text>
<text text-anchor="start" x="761.5" y="-558.2" font-family="monospace" font-size="11.00"> &#160;&quot;model&quot;: &quot;qwen3&#45;32b&quot;,</text>
<text text-anchor="start" x="761.5" y="-544.2" font-family="monospace" font-size="11.00"> &#160;&quot;messages&quot;: [</text>
<text text-anchor="start" x="761.5" y="-530.2" font-family="monospace" font-size="11.00"> &#160;&#160;&#160;{&quot;role&quot;: &quot;user&quot;,</text>
<text text-anchor="start" x="761.5" y="-516.2" font-family="monospace" font-size="11.00"> &#160;&#160;&#160;&#160;&quot;content&quot;: &quot;...&quot;}],</text>
<text text-anchor="start" x="761.5" y="-502.2" font-family="monospace" font-size="11.00"> &#160;&quot;max_tokens&quot;: 128</text>
<text text-anchor="start" x="761.5" y="-488.2" font-family="monospace" font-size="11.00">}</text>
</g>
<!-- client&#45;&gt;request -->
<!-- lb -->
<g id="node4" class="node">
<title>lb</title>
<path fill="#4caf50" stroke="#2e7d32" d="M908,-458C908,-458 783,-458 783,-458 777,-458 771,-452 771,-446 771,-446 771,-402 771,-402 771,-396 777,-390 783,-390 783,-390 908,-390 908,-390 914,-390 920,-396 920,-402 920,-402 920,-446 920,-446 920,-452 914,-458 908,-458"/>
<text text-anchor="middle" x="845.5" y="-445.2" font-family="Arial" font-size="11.00" fill="#ffffff">Internal LoadBalancer</text>
<text text-anchor="middle" x="845.5" y="-433.2" font-family="Arial" font-size="11.00" fill="#ffffff">Service: qwen3&#45;vllm</text>
<text text-anchor="middle" x="845.5" y="-421.2" font-family="Arial" font-size="11.00" fill="#ffffff">IP: 10.128.0.43:8000</text>
<text text-anchor="middle" x="845.5" y="-409.2" font-family="Arial" font-size="11.00" fill="#ffffff">DNS: qwen3&#45;vllm.inference</text>
<text text-anchor="middle" x="845.5" y="-397.2" font-family="Arial" font-size="11.00" fill="#ffffff">.svc.cluster.local:8000</text>
</g>
<!-- client&#45;&gt;lb -->
<g id="edge1" class="edge">
<title>client&#45;&gt;lb</title>
<path fill="none" stroke="#333333" stroke-width="2" d="M386.01,-472.45C479.27,-462.59 655.85,-443.93 760.56,-432.87"/>
<polygon fill="#333333" stroke="#333333" stroke-width="2" points="761.2,-436.32 770.77,-431.79 760.46,-429.36 761.2,-436.32"/>
<text text-anchor="middle" x="699" y="-444" font-family="Arial" font-size="10.00">HTTP :8000</text>
</g>
<!-- response -->
<g id="node3" class="node">
<title>response</title>
<path fill="#f5f5f5" stroke="#4caf50" d="M1278.5,-632C1278.5,-632 1135.5,-632 1135.5,-632 1129.5,-632 1123.5,-626 1123.5,-620 1123.5,-620 1123.5,-482 1123.5,-482 1123.5,-476 1129.5,-470 1135.5,-470 1135.5,-470 1278.5,-470 1278.5,-470 1284.5,-470 1290.5,-476 1290.5,-482 1290.5,-482 1290.5,-620 1290.5,-620 1290.5,-626 1284.5,-632 1278.5,-632"/>
<text text-anchor="start" x="1181" y="-619.2" font-family="Arial" font-weight="bold" font-size="11.00" fill="#4caf50">Response</text>
<text text-anchor="start" x="1133" y="-604.2" font-family="monospace" font-size="11.00">{</text>
<text text-anchor="start" x="1133" y="-590.2" font-family="monospace" font-size="11.00"> &#160;&quot;choices&quot;: [{</text>
<text text-anchor="start" x="1133" y="-576.2" font-family="monospace" font-size="11.00"> &#160;&#160;&#160;&quot;message&quot;: {</text>
<text text-anchor="start" x="1133" y="-562.2" font-family="monospace" font-size="11.00"> &#160;&#160;&#160;&#160;&#160;&quot;role&quot;: &quot;asst&quot;,</text>
<text text-anchor="start" x="1133" y="-548.2" font-family="monospace" font-size="11.00"> &#160;&#160;&#160;&#160;&#160;&quot;content&quot;: &quot;...&quot;</text>
<text text-anchor="start" x="1133" y="-534.2" font-family="monospace" font-size="11.00"> &#160;&#160;&#160;}</text>
<text text-anchor="start" x="1133" y="-520.2" font-family="monospace" font-size="11.00"> &#160;}],</text>
<text text-anchor="start" x="1133" y="-506.2" font-family="monospace" font-size="11.00"> &#160;&quot;usage&quot;: {...}</text>
<text text-anchor="start" x="1133" y="-492.2" font-family="monospace" font-size="11.00">}</text>
<text text-anchor="start" x="1161" y="-478.2" font-family="Arial" font-size="11.00" fill="#4caf50">OpenAI&#45;compatible</text>
</g>
<!-- request&#45;&gt;response -->
<!-- lb&#45;&gt;client -->
<g id="edge7" class="edge">
<title>lb&#45;&gt;client</title>
<path fill="none" stroke="#4caf50" stroke-width="2" d="M770.81,-420.96C758.52,-420.56 745.9,-420.22 734,-420 702.89,-419.44 695,-417.33 664,-420 570.7,-428.04 464.57,-448.25 396.07,-462.78"/>
<polygon fill="#4caf50" stroke="#4caf50" stroke-width="2" points="395.29,-459.37 386.24,-464.88 396.76,-466.22 395.29,-459.37"/>
<text text-anchor="middle" x="699" y="-423" font-family="Arial" font-size="10.00" fill="#4caf50">JSON response</text>
</g>
<!-- note -->
<g id="node5" class="node">
<title>note</title>
<path fill="#e3f2fd" stroke="#1565c0" d="M1324,-452C1324,-452 1090,-452 1090,-452 1084,-452 1078,-446 1078,-440 1078,-440 1078,-408 1078,-408 1078,-402 1084,-396 1090,-396 1090,-396 1324,-396 1324,-396 1330,-396 1336,-402 1336,-408 1336,-408 1336,-440 1336,-440 1336,-446 1330,-452 1324,-452"/>
<text text-anchor="middle" x="1207" y="-439.2" font-family="Arial" font-size="11.00">Tensor Parallelism (TP=2)</text>
<text text-anchor="middle" x="1207" y="-427.2" font-family="Arial" font-size="11.00">Each layer&#39;s weight matrices are split column&#45;wise</text>
<text text-anchor="middle" x="1207" y="-415.2" font-family="Arial" font-size="11.00">across the 2 GPUs. Both compute in lockstep,</text>
<text text-anchor="middle" x="1207" y="-403.2" font-family="Arial" font-size="11.00">exchanging partial results over NVLink every layer.</text>
</g>
<!-- lb&#45;&gt;note -->
<!-- vllm_server -->
<g id="node6" class="node">
<title>vllm_server</title>
<path fill="#ffe0b2" stroke="#e65100" d="M1323.5,-304C1323.5,-304 1090.5,-304 1090.5,-304 1084.5,-304 1078.5,-298 1078.5,-292 1078.5,-292 1078.5,-212 1078.5,-212 1078.5,-206 1084.5,-200 1090.5,-200 1090.5,-200 1323.5,-200 1323.5,-200 1329.5,-200 1335.5,-206 1335.5,-212 1335.5,-212 1335.5,-292 1335.5,-292 1335.5,-298 1329.5,-304 1323.5,-304"/>
<text text-anchor="middle" x="1207" y="-291.2" font-family="Arial" font-size="11.00">vLLM Server</text>
<text text-anchor="middle" x="1207" y="-279.2" font-family="Arial" font-size="11.00">Image: vllm/vllm&#45;openai:v0.8.4</text>
<text text-anchor="middle" x="1207" y="-267.2" font-family="Arial" font-size="11.00">Model: Qwen/Qwen3&#45;32B (~32B params)</text>
<text text-anchor="middle" x="1207" y="-255.2" font-family="Arial" font-size="11.00">&#45;&#45;tensor&#45;parallel&#45;size 2</text>
<text text-anchor="middle" x="1207" y="-243.2" font-family="Arial" font-size="11.00">&#45;&#45;max&#45;model&#45;len 32768</text>
<text text-anchor="middle" x="1207" y="-231.2" font-family="Arial" font-size="11.00">&#45;&#45;gpu&#45;memory&#45;utilization 0.90</text>
<text text-anchor="middle" x="1207" y="-219.2" font-family="Arial" font-size="11.00">Requests: 2x nvidia.com/gpu</text>
<text text-anchor="middle" x="1207" y="-207.2" font-family="Arial" font-size="11.00">(Model split across 2 H100s via tensor parallelism)</text>
</g>
<!-- lb&#45;&gt;vllm_server -->
<g id="edge2" class="edge">
<title>lb&#45;&gt;vllm_server</title>
<path fill="none" stroke="#333333" stroke-width="2" d="M917.96,-389.81C958.98,-370.19 1011.99,-344.82 1061.34,-321.21"/>
<polygon fill="#333333" stroke="#333333" stroke-width="2" points="1062.99,-324.3 1070.5,-316.83 1059.97,-317.99 1062.99,-324.3"/>
<text text-anchor="middle" x="1008.5" y="-371" font-family="Arial" font-size="10.00">Routes to pod</text>
</g>
<!-- vllm_server&#45;&gt;lb -->
<g id="edge6" class="edge">
<title>vllm_server&#45;&gt;lb</title>
<path fill="none" stroke="#4caf50" stroke-width="2" d="M1078.47,-265.16C1037.77,-273.2 993.78,-286.15 957,-307 924.54,-325.4 895.88,-356.44 875.88,-381.93"/>
<polygon fill="#4caf50" stroke="#4caf50" stroke-width="2" points="873.01,-379.92 869.7,-389.99 878.56,-384.18 873.01,-379.92"/>
<text text-anchor="middle" x="1008.5" y="-310" font-family="Arial" font-size="10.00" fill="#4caf50">Token stream response</text>
</g>
<!-- gpu0 -->
<g id="node7" class="node">
<title>gpu0</title>
<path fill="#ff9800" stroke="#bf360c" d="M1602,-142C1602,-142 1501,-142 1501,-142 1495,-142 1489,-136 1489,-130 1489,-130 1489,-36 1489,-36 1489,-30 1495,-24 1501,-24 1501,-24 1602,-24 1602,-24 1608,-24 1614,-30 1614,-36 1614,-36 1614,-130 1614,-130 1614,-136 1608,-142 1602,-142"/>
<text text-anchor="middle" x="1551.5" y="-130" font-family="Arial" font-size="10.00" fill="#000000">GPU 0</text>
<text text-anchor="middle" x="1551.5" y="-119" font-family="Arial" font-size="10.00" fill="#000000">H100 80GB</text>
<text text-anchor="middle" x="1551.5" y="-108" font-family="Arial" font-size="10.00" fill="#000000">Memory used:</text>
<text text-anchor="middle" x="1551.5" y="-97" font-family="Arial" font-size="10.00" fill="#000000">~77,583 MiB</text>
<text text-anchor="middle" x="1551.5" y="-86" font-family="Arial" font-size="10.00" fill="#000000">Loads:</text>
<text text-anchor="middle" x="1551.5" y="-75" font-family="Arial" font-size="10.00" fill="#000000">&#45; Half of model weights</text>
<text text-anchor="middle" x="1551.5" y="-64" font-family="Arial" font-size="10.00" fill="#000000">&#45; KV cache</text>
<text text-anchor="middle" x="1551.5" y="-53" font-family="Arial" font-size="10.00" fill="#000000">&#45; Activations</text>
<text text-anchor="middle" x="1551.5" y="-42" font-family="Arial" font-size="10.00" fill="#000000">Computes:</text>
<text text-anchor="middle" x="1551.5" y="-31" font-family="Arial" font-size="10.00" fill="#000000">Partial matmuls per layer</text>
</g>
<!-- vllm_server&#45;&gt;gpu0 -->
<g id="edge3" class="edge">
<title>vllm_server&#45;&gt;gpu0</title>
<path fill="none" stroke="#e65100" stroke-width="2" d="M1313.56,-199.92C1349.32,-182.27 1389.6,-162.39 1426.65,-144.11"/>
<polygon fill="#e65100" stroke="#e65100" stroke-width="2" points="1428.58,-147.06 1436,-139.5 1425.49,-140.78 1428.58,-147.06"/>
<text text-anchor="middle" x="1386" y="-191" font-family="Arial" font-size="10.00">Tensor&#45;parallel</text>
<text text-anchor="middle" x="1386" y="-180" font-family="Arial" font-size="10.00">computation</text>
</g>
<!-- gpu1 -->
<g id="node8" class="node">
<title>gpu1</title>
<path fill="#ff9800" stroke="#bf360c" d="M1602,-311C1602,-311 1501,-311 1501,-311 1495,-311 1489,-305 1489,-299 1489,-299 1489,-205 1489,-205 1489,-199 1495,-193 1501,-193 1501,-193 1602,-193 1602,-193 1608,-193 1614,-199 1614,-205 1614,-205 1614,-299 1614,-299 1614,-305 1608,-311 1602,-311"/>
<text text-anchor="middle" x="1551.5" y="-299" font-family="Arial" font-size="10.00" fill="#000000">GPU 1</text>
<text text-anchor="middle" x="1551.5" y="-288" font-family="Arial" font-size="10.00" fill="#000000">H100 80GB</text>
<text text-anchor="middle" x="1551.5" y="-277" font-family="Arial" font-size="10.00" fill="#000000">Memory used:</text>
<text text-anchor="middle" x="1551.5" y="-266" font-family="Arial" font-size="10.00" fill="#000000">~77,583 MiB</text>
<text text-anchor="middle" x="1551.5" y="-255" font-family="Arial" font-size="10.00" fill="#000000">Loads:</text>
<text text-anchor="middle" x="1551.5" y="-244" font-family="Arial" font-size="10.00" fill="#000000">&#45; Other half of weights</text>
<text text-anchor="middle" x="1551.5" y="-233" font-family="Arial" font-size="10.00" fill="#000000">&#45; KV cache</text>
<text text-anchor="middle" x="1551.5" y="-222" font-family="Arial" font-size="10.00" fill="#000000">&#45; Activations</text>
<text text-anchor="middle" x="1551.5" y="-211" font-family="Arial" font-size="10.00" fill="#000000">Computes:</text>
<text text-anchor="middle" x="1551.5" y="-200" font-family="Arial" font-size="10.00" fill="#000000">Partial matmuls per layer</text>
</g>
<!-- vllm_server&#45;&gt;gpu1 -->
<g id="edge4" class="edge">
<title>vllm_server&#45;&gt;gpu1</title>
<path fill="none" stroke="#e65100" stroke-width="2" d="M1335.53,-252C1365.01,-252 1396.34,-252 1425.7,-252"/>
<polygon fill="#e65100" stroke="#e65100" stroke-width="2" points="1426,-255.5 1436,-252 1426,-248.5 1426,-255.5"/>
</g>
<!-- gpu0&#45;&gt;gpu1 -->
<g id="edge5" class="edge">
<title>gpu0&#45;&gt;gpu1</title>
<path fill="none" stroke="#bf360c" stroke-width="2" d="M1551.5,-152.29C1551.5,-162.3 1551.5,-172.61 1551.5,-182.62"/>
<polygon fill="#bf360c" stroke="#bf360c" stroke-width="2" points="1555,-152.11 1551.5,-142.11 1548,-152.11 1555,-152.11"/>
<polygon fill="#bf360c" stroke="#bf360c" stroke-width="2" points="1548,-182.93 1551.5,-192.93 1555,-182.93 1548,-182.93"/>
<text text-anchor="middle" x="1532" y="-176" font-family="Arial" font-size="10.00">NVLink</text>
<text text-anchor="middle" x="1532" y="-165" font-family="Arial" font-size="10.00">Exchange</text>
<text text-anchor="middle" x="1532" y="-154" font-family="Arial" font-size="10.00">partial results</text>
</g>
<!-- footer -->
<g id="node9" class="node">
<title>footer</title>
<text text-anchor="middle" x="323" y="-549.2" font-family="Arial" font-size="11.00">6 remaining H100s available for Jupyter GPU notebooks | vLLM PVC (hf&#45;cache, 150Gi) caches model weights to avoid re&#45;download</text>
</g>
</g>
</svg>
