<?xml version="1.0" encoding="UTF-8" standalone="no"?>
<!DOCTYPE svg PUBLIC "-//W3C//DTD SVG 1.1//EN"
 "http://www.w3.org/Graphics/SVG/1.1/DTD/svg11.dtd">
<!-- Generated by graphviz version 2.43.0 (0)
 -->
<!-- Title: jupyter_flow Pages: 1 -->
<svg width="1360pt" height="755pt"
 viewBox="0.00 0.00 1359.50 755.00" xmlns="http://www.w3.org/2000/svg" xmlns:xlink="http://www.w3.org/1999/xlink">
<g id="graph0" class="graph" transform="scale(1 1) rotate(0) translate(4 751)">
<title>jupyter_flow</title>
<polygon fill="white" stroke="transparent" points="-4,4 -4,-751 1355.5,-751 1355.5,4 -4,4"/>
<text text-anchor="middle" x="675.75" y="-727" font-family="Arial" font-size="20.00">JupyterHub Flow: User Login &#45;&gt; GPU Notebook Spawn &#45;&gt; vLLM API Call</text>
<g id="clust1" class="cluster">
<title>cluster_profile</title>
<path fill="#fff9c4" stroke="#f57f17" d="M389,-504C389,-504 595,-504 595,-504 601,-504 607,-510 607,-516 607,-516 607,-572 607,-572 607,-578 601,-584 595,-584 595,-584 389,-584 389,-584 383,-584 377,-578 377,-572 377,-572 377,-516 377,-516 377,-510 383,-504 389,-504"/>
<text text-anchor="middle" x="492" y="-568.8" font-family="Arial" font-size="14.00">Profile Selection</text>
</g>
<g id="clust2" class="cluster">
<title>cluster_a3node</title>
<path fill="#fff3e0" stroke="#ff6f00" d="M20,-8C20,-8 652,-8 652,-8 658,-8 664,-14 664,-20 664,-20 664,-336 664,-336 664,-342 658,-348 652,-348 652,-348 20,-348 20,-348 14,-348 8,-342 8,-336 8,-336 8,-20 8,-20 8,-14 14,-8 20,-8"/>
<text text-anchor="middle" x="336" y="-332" font-family="Arial" font-size="15.00">A3 Node: gke&#45;hypercomputer&#45;a3&#45;a3&#45;h100&#45;dws&#45;pool&#45;...&#45;hhp6 (8x H100 80GB)</text>
</g>
<g id="clust3" class="cluster">
<title>cluster_nbpod</title>
<path fill="#ffcc80" stroke="#e65100" d="M28,-211C28,-211 502,-211 502,-211 508,-211 514,-217 514,-223 514,-223 514,-290 514,-290 514,-296 508,-302 502,-302 502,-302 28,-302 28,-302 22,-302 16,-296 16,-290 16,-290 16,-223 16,-223 16,-217 22,-211 28,-211"/>
<text text-anchor="middle" x="265" y="-288.4" font-family="Arial" font-size="12.00">GPU Notebook Pod (ns: jupyter)</text>
<text text-anchor="middle" x="265" y="-275.4" font-family="Arial" font-size="12.00">jupyter&#45;&lt;username&gt;</text>
</g>
<g id="clust4" class="cluster">
<title>cluster_vllmpod</title>
<path fill="#ffcc80" stroke="#e65100" d="M41,-16C41,-16 339,-16 339,-16 345,-16 351,-22 351,-28 351,-28 351,-115 351,-115 351,-121 345,-127 339,-127 339,-127 41,-127 41,-127 35,-127 29,-121 29,-115 29,-115 29,-28 29,-28 29,-22 35,-16 41,-16"/>
<text text-anchor="middle" x="190" y="-113.4" font-family="Arial" font-size="12.00">vLLM Pod (ns: inference)</text>
</g>
<!-- user -->
<g id="node1" class="node">
<title>user</title>
<path fill="#ffffff" stroke="#666666" d="M217,-694C217,-694 119,-694 119,-694 113,-694 107,-688 107,-682 107,-682 107,-646 107,-646 107,-640 113,-634 119,-634 119,-634 217,-634 217,-634 223,-634 229,-640 229,-646 229,-646 229,-682 229,-682 229,-688 223,-694 217,-694"/>
<text text-anchor="middle" x="168" y="-680.4" font-family="Arial" font-size="12.00">User</text>
<text text-anchor="middle" x="168" y="-667.4" font-family="Arial" font-size="12.00">Browser</text>
<text text-anchor="middle" x="168" y="-654.4" font-family="Arial" font-size="12.00">(inside VPC)</text>
<text text-anchor="middle" x="168" y="-641.4" font-family="Arial" font-size="12.00">http://10.128.15.234</text>
</g>
<!-- jh_lb -->
<g id="node2" class="node">
<title>jh_lb</title>
<path fill="#4caf50" stroke="#2e7d32" d="M400,-692C400,-692 302,-692 302,-692 296,-692 290,-686 290,-680 290,-680 290,-648 290,-648 290,-642 296,-636 302,-636 302,-636 400,-636 400,-636 406,-636 412,-642 412,-648 412,-648 412,-680 412,-680 412,-686 406,-692 400,-692"/>
<text text-anchor="middle" x="351" y="-679.2" font-family="Arial" font-size="11.00" fill="#ffffff">Internal LoadBalancer</text>
<text text-anchor="middle" x="351" y="-667.2" font-family="Arial" font-size="11.00" fill="#ffffff">proxy&#45;public service</text>
<text text-anchor="middle" x="351" y="-655.2" font-family="Arial" font-size="11.00" fill="#ffffff">IP: 10.128.15.234:80</text>
<text text-anchor="middle" x="351" y="-643.2" font-family="Arial" font-size="11.00" fill="#ffffff">(ns: jupyter)</text>
</g>
<!-- user&#45;&gt;jh_lb -->
<g id="edge1" class="edge">
<title>user&#45;&gt;jh_lb</title>
<path fill="none" stroke="#333333" stroke-width="2" d="M229.19,-664C245.37,-664 262.97,-664 279.63,-664"/>
<polygon fill="#333333" stroke="#333333" stroke-width="2" points="279.87,-667.5 289.87,-664 279.87,-660.5 279.87,-667.5"/>
<text text-anchor="middle" x="259.5" y="-670" font-family="Arial" font-size="10.00">HTTP :80</text>
</g>
<!-- hub -->
<g id="node3" class="node">
<title>hub</title>
<path fill="#ff9800" stroke="#e65100" d="M624.5,-698C624.5,-698 473.5,-698 473.5,-698 467.5,-698 461.5,-692 461.5,-686 461.5,-686 461.5,-642 461.5,-642 461.5,-636 467.5,-630 473.5,-630 473.5,-630 624.5,-630 624.5,-630 630.5,-630 636.5,-636 636.5,-642 636.5,-642 636.5,-686 636.5,-686 636.5,-692 630.5,-698 624.5,-698"/>
<text text-anchor="middle" x="549" y="-685.2" font-family="Arial" font-size="11.00">JupyterHub Hub</text>
<text text-anchor="middle" x="549" y="-673.2" font-family="Arial" font-size="11.00">Helm: jupyterhub 4.4.0</text>
<text text-anchor="middle" x="549" y="-661.2" font-family="Arial" font-size="11.00">JupyterHub 5.5.0</text>
<text text-anchor="middle" x="549" y="-649.2" font-family="Arial" font-size="11.00">(ns: jupyter)</text>
<text text-anchor="middle" x="549" y="-637.2" font-family="Arial" font-size="11.00">DummyAuthenticator: demo2026</text>
</g>
<!-- jh_lb&#45;&gt;hub -->
<g id="edge2" class="edge">
<title>jh_lb&#45;&gt;hub</title>
<path fill="none" stroke="#333333" stroke-width="2" d="M412.02,-664C424.43,-664 437.77,-664 451.09,-664"/>
<polygon fill="#333333" stroke="#333333" stroke-width="2" points="451.25,-667.5 461.25,-664 451.25,-660.5 451.25,-667.5"/>
<text text-anchor="middle" x="436.75" y="-670" font-family="Arial" font-size="10.00">Routes</text>
</g>
<!-- login -->
<g id="node4" class="node">
<title>login</title>
<path fill="#f5f5f5" stroke="#666666" d="M793.5,-698C793.5,-698 684.5,-698 684.5,-698 678.5,-698 672.5,-692 672.5,-686 672.5,-686 672.5,-642 672.5,-642 672.5,-636 678.5,-630 684.5,-630 684.5,-630 793.5,-630 793.5,-630 799.5,-630 805.5,-636 805.5,-642 805.5,-642 805.5,-686 805.5,-686 805.5,-692 799.5,-698 793.5,-698"/>
<text text-anchor="middle" x="739" y="-685.2" font-family="Arial" font-size="11.00">Login Form</text>
<text text-anchor="middle" x="739" y="-673.2" font-family="Arial" font-size="11.00">Username: (any)</text>
<text text-anchor="middle" x="739" y="-661.2" font-family="Arial" font-size="11.00">Password: demo2026</text>
<text text-anchor="middle" x="739" y="-649.2" font-family="Arial" font-size="11.00">(Demo only &#45; use OAuth</text>
<text text-anchor="middle" x="739" y="-637.2" font-family="Arial" font-size="11.00">for production)</text>
</g>
<!-- hub&#45;&gt;login -->
<!-- cpu -->
<g id="node6" class="node">
<title>cpu</title>
<path fill="#e0e0e0" stroke="#666666" d="M586.5,-553C586.5,-553 511.5,-553 511.5,-553 505.5,-553 499.5,-547 499.5,-541 499.5,-541 499.5,-524 499.5,-524 499.5,-518 505.5,-512 511.5,-512 511.5,-512 586.5,-512 586.5,-512 592.5,-512 598.5,-518 598.5,-524 598.5,-524 598.5,-541 598.5,-541 598.5,-547 592.5,-553 586.5,-553"/>
<text text-anchor="middle" x="549" y="-541" font-family="Arial" font-size="10.00">CPU (no GPU)</text>
<text text-anchor="middle" x="549" y="-530" font-family="Arial" font-size="10.00">Default profile</text>
<text text-anchor="middle" x="549" y="-519" font-family="Arial" font-size="10.00">4 CPU / 16G RAM</text>
</g>
<!-- hub&#45;&gt;cpu -->
<!-- code_example -->
<g id="node5" class="node">
<title>code_example</title>
<path fill="#e3f2fd" stroke="#1565c0" d="M1070.5,-717C1070.5,-717 853.5,-717 853.5,-717 847.5,-717 841.5,-711 841.5,-705 841.5,-705 841.5,-623 841.5,-623 841.5,-617 847.5,-611 853.5,-611 853.5,-611 1070.5,-611 1070.5,-611 1076.5,-611 1082.5,-617 1082.5,-623 1082.5,-623 1082.5,-705 1082.5,-705 1082.5,-711 1076.5,-717 1070.5,-717"/>
<text text-anchor="start" x="869.5" y="-704.2" font-family="Arial" font-weight="bold" font-size="11.00" fill="#1565c0">Example: Call vLLM from Notebook</text>
<text text-anchor="start" x="851" y="-689.2" font-family="monospace" font-size="11.00">from openai import OpenAI</text>
<text text-anchor="start" x="851" y="-675.2" font-family="monospace" font-size="11.00">client = OpenAI(base_url=</text>
<text text-anchor="start" x="851" y="-661.2" font-family="monospace" font-size="11.00"> &#160;&quot;http://qwen3&#45;vllm.inference</text>
<text text-anchor="start" x="851" y="-647.2" font-family="monospace" font-size="11.00"> &#160;.svc.cluster.local:8000/v1&quot;,</text>
<text text-anchor="start" x="851" y="-633.2" font-family="monospace" font-size="11.00"> &#160;api_key=&quot;none&quot;)</text>
<text text-anchor="start" x="851" y="-619.2" font-family="monospace" font-size="11.00">resp = client.chat.completions...</text>
</g>
<!-- login&#45;&gt;code_example -->
<!-- gpu_profile -->
<g id="node7" class="node">
<title>gpu_profile</title>
<path fill="#ffcc80" stroke="#e65100" d="M469,-553C469,-553 397,-553 397,-553 391,-553 385,-547 385,-541 385,-541 385,-524 385,-524 385,-518 391,-512 397,-512 397,-512 469,-512 469,-512 475,-512 481,-518 481,-524 481,-524 481,-541 481,-541 481,-547 475,-553 469,-553"/>
<text text-anchor="middle" x="433" y="-541" font-family="Arial" font-size="10.00">GPU (1x H100)</text>
<text text-anchor="middle" x="433" y="-530" font-family="Arial" font-size="10.00">PyTorch CUDA12</text>
<text text-anchor="middle" x="433" y="-519" font-family="Arial" font-size="10.00">1x nvidia.com/gpu</text>
</g>
<!-- spawn -->
<g id="node8" class="node">
<title>spawn</title>
<path fill="#ffe0b2" stroke="#e65100" d="M507,-465C507,-465 359,-465 359,-465 353,-465 347,-459 347,-453 347,-453 347,-397 347,-397 347,-391 353,-385 359,-385 359,-385 507,-385 507,-385 513,-385 519,-391 519,-397 519,-397 519,-453 519,-453 519,-459 513,-465 507,-465"/>
<text text-anchor="middle" x="433" y="-452.2" font-family="Arial" font-size="11.00">Hub Spawns Notebook Pod</text>
<text text-anchor="middle" x="433" y="-440.2" font-family="Arial" font-size="11.00">Image: quay.io/jupyter/</text>
<text text-anchor="middle" x="433" y="-428.2" font-family="Arial" font-size="11.00">pytorch&#45;notebook:cuda12&#45;latest</text>
<text text-anchor="middle" x="433" y="-416.2" font-family="Arial" font-size="11.00">Requests: nvidia.com/gpu: &quot;1&quot;</text>
<text text-anchor="middle" x="433" y="-404.2" font-family="Arial" font-size="11.00">NodeSelector: nvidia&#45;h100&#45;80gb</text>
<text text-anchor="middle" x="433" y="-392.2" font-family="Arial" font-size="11.00">Tolerations: gpu + gke&#45;queued</text>
</g>
<!-- gpu_profile&#45;&gt;spawn -->
<g id="edge6" class="edge">
<title>gpu_profile&#45;&gt;spawn</title>
<path fill="none" stroke="#e65100" stroke-width="2" d="M433,-511.66C433,-501.39 433,-488.35 433,-475.57"/>
<polygon fill="#e65100" stroke="#e65100" stroke-width="2" points="436.5,-475.42 433,-465.42 429.5,-475.42 436.5,-475.42"/>
<text text-anchor="middle" x="473.5" y="-486" font-family="Arial" font-size="10.00" fill="#e65100">User selects GPU</text>
</g>
<!-- nb_gpu0 -->
<g id="node9" class="node">
<title>nb_gpu0</title>
<path fill="#ff9800" stroke="#bf360c" d="M494,-257.5C494,-257.5 372,-257.5 372,-257.5 366,-257.5 360,-251.5 360,-245.5 360,-245.5 360,-233.5 360,-233.5 360,-227.5 366,-221.5 372,-221.5 372,-221.5 494,-221.5 494,-221.5 500,-221.5 506,-227.5 506,-233.5 506,-233.5 506,-245.5 506,-245.5 506,-251.5 500,-257.5 494,-257.5"/>
<text text-anchor="middle" x="433" y="-242.5" font-family="Arial" font-size="10.00" fill="#ffffff">GPU 0 (1x H100)</text>
<text text-anchor="middle" x="433" y="-231.5" font-family="Arial" font-size="10.00" fill="#ffffff">nvidia&#45;smi shows H100 80GB</text>
</g>
<!-- spawn&#45;&gt;nb_gpu0 -->
<g id="edge7" class="edge">
<title>spawn&#45;&gt;nb_gpu0</title>
<path fill="none" stroke="#ff6f00" stroke-width="2" d="M433,-384.63C433,-363.48 433,-336.75 433,-312.06"/>
<polygon fill="#ff6f00" stroke="#ff6f00" stroke-width="2" points="436.5,-312 433,-302 429.5,-312 436.5,-312"/>
<text text-anchor="middle" x="481" y="-359" font-family="Arial" font-size="10.00" fill="#ff6f00">Schedules to A3 node</text>
</g>
<!-- nb_home -->
<g id="node10" class="node">
<title>nb_home</title>
<path fill="#d1c4e9" stroke="#512da8" d="M329.5,-257.5C329.5,-257.5 210.5,-257.5 210.5,-257.5 204.5,-257.5 198.5,-251.5 198.5,-245.5 198.5,-245.5 198.5,-233.5 198.5,-233.5 198.5,-227.5 204.5,-221.5 210.5,-221.5 210.5,-221.5 329.5,-221.5 329.5,-221.5 335.5,-221.5 341.5,-227.5 341.5,-233.5 341.5,-233.5 341.5,-245.5 341.5,-245.5 341.5,-251.5 335.5,-257.5 329.5,-257.5"/>
<text text-anchor="middle" x="270" y="-242.5" font-family="Arial" font-size="10.00">Persistent Home (20Gi PVC)</text>
<text text-anchor="middle" x="270" y="-231.5" font-family="Arial" font-size="10.00">premium&#45;rwo, per&#45;user</text>
</g>
<!-- footer -->
<g id="node15" class="node">
<title>footer</title>
<text text-anchor="middle" x="1012" y="-58.2" font-family="Arial" font-size="11.00">First GPU notebook spawn: 2&#45;3 min (image pull) | Subsequent spawns: &lt;30s | See deploy/jupyter/examples/*.ipynb for example notebooks</text>
</g>
<!-- nb_home&#45;&gt;footer -->
<!-- nb_code -->
<g id="node11" class="node">
<title>nb_code</title>
<path fill="#e0e0e0" stroke="#666666" d="M168,-260C168,-260 36,-260 36,-260 30,-260 24,-254 24,-248 24,-248 24,-231 24,-231 24,-225 30,-219 36,-219 36,-219 168,-219 168,-219 174,-219 180,-225 180,-231 180,-231 180,-248 180,-248 180,-254 174,-260 168,-260"/>
<text text-anchor="middle" x="102" y="-248" font-family="Arial" font-size="10.00">Code runs in notebook:</text>
<text text-anchor="middle" x="102" y="-237" font-family="Arial" font-size="10.00">torch.cuda.is_available() &#45;&gt; True</text>
<text text-anchor="middle" x="102" y="-226" font-family="Arial" font-size="10.00">Call vLLM endpoint &#45;&gt;</text>
</g>
<!-- vllm_dns -->
<g id="node13" class="node">
<title>vllm_dns</title>
<path fill="#e0e0e0" stroke="#666666" d="M179,-98C179,-98 49,-98 49,-98 43,-98 37,-92 37,-86 37,-86 37,-36 37,-36 37,-30 43,-24 49,-24 49,-24 179,-24 179,-24 185,-24 191,-30 191,-36 191,-36 191,-86 191,-86 191,-92 185,-98 179,-98"/>
<text text-anchor="middle" x="114" y="-86" font-family="Arial" font-size="10.00">Cluster DNS endpoint:</text>
<text text-anchor="middle" x="114" y="-75" font-family="Arial" font-size="10.00">qwen3&#45;vllm.inference</text>
<text text-anchor="middle" x="114" y="-64" font-family="Arial" font-size="10.00">.svc.cluster.local:8000</text>
<text text-anchor="middle" x="114" y="-53" font-family="Arial" font-size="10.00">(cross&#45;namespace DNS works:</text>
<text text-anchor="middle" x="114" y="-42" font-family="Arial" font-size="10.00">jupyter &#45;&gt; inference)</text>
<text text-anchor="middle" x="114" y="-31" font-family="Arial" font-size="10.00">OpenAI&#45;compatible API</text>
</g>
<!-- nb_code&#45;&gt;vllm_dns -->
<g id="edge8" class="edge">
<title>nb_code&#45;&gt;vllm_dns</title>
<path fill="none" stroke="#4caf50" stroke-width="2" d="M91.92,-218.66C82.63,-197.82 71.21,-164.1 78,-135 80.17,-125.71 83.7,-116.23 87.72,-107.33"/>
<polygon fill="#4caf50" stroke="#4caf50" stroke-width="2" points="90.89,-108.81 92.05,-98.28 84.58,-105.79 90.89,-108.81"/>
<text text-anchor="middle" x="91.5" y="-138" font-family="Arial" font-size="10.00" fill="#4caf50">HTTP</text>
</g>
<!-- vllm_gpus -->
<g id="node12" class="node">
<title>vllm_gpus</title>
<path fill="#ff9800" stroke="#bf360c" d="M331,-81.5C331,-81.5 221,-81.5 221,-81.5 215,-81.5 209,-75.5 209,-69.5 209,-69.5 209,-52.5 209,-52.5 209,-46.5 215,-40.5 221,-40.5 221,-40.5 331,-40.5 331,-40.5 337,-40.5 343,-46.5 343,-52.5 343,-52.5 343,-69.5 343,-69.5 343,-75.5 337,-81.5 331,-81.5"/>
<text text-anchor="middle" x="276" y="-69.5" font-family="Arial" font-size="10.00" fill="#ffffff">GPU 0 + GPU 1 (2x H100)</text>
<text text-anchor="middle" x="276" y="-58.5" font-family="Arial" font-size="10.00" fill="#ffffff">Qwen3&#45;32B, TP=2</text>
<text text-anchor="middle" x="276" y="-47.5" font-family="Arial" font-size="10.00" fill="#ffffff">~77GB each</text>
</g>
<!-- vllm_dns&#45;&gt;nb_code -->
<g id="edge9" class="edge">
<title>vllm_dns&#45;&gt;nb_code</title>
<path fill="none" stroke="#4caf50" stroke-width="2" d="M111.54,-98.18C109.32,-130.88 106.08,-178.44 104.01,-208.92"/>
<polygon fill="#4caf50" stroke="#4caf50" stroke-width="2" points="100.52,-208.72 103.33,-218.94 107.5,-209.2 100.52,-208.72"/>
<text text-anchor="middle" x="131.5" y="-138" font-family="Arial" font-size="10.00" fill="#4caf50">Response</text>
</g>
<!-- remaining -->
<g id="node14" class="node">
<title>remaining</title>
<path fill="#e0e0e0" stroke="#666666" stroke-dasharray="5,2" d="M643.5,-315C643.5,-315 536.5,-315 536.5,-315 530.5,-315 524.5,-309 524.5,-303 524.5,-303 524.5,-176 524.5,-176 524.5,-170 530.5,-164 536.5,-164 536.5,-164 643.5,-164 643.5,-164 649.5,-164 655.5,-170 655.5,-176 655.5,-176 655.5,-303 655.5,-303 655.5,-309 649.5,-315 643.5,-315"/>
<text text-anchor="middle" x="590" y="-303" font-family="Arial" font-size="10.00">Remaining GPUs</text>
<text text-anchor="middle" x="590" y="-292" font-family="Arial" font-size="10.00">(up to ~6 H100s available)</text>
<text text-anchor="middle" x="590" y="-281" font-family="Arial" font-size="10.00">For:</text>
<text text-anchor="middle" x="590" y="-270" font-family="Arial" font-size="10.00">&#45; More GPU notebooks</text>
<text text-anchor="middle" x="590" y="-259" font-family="Arial" font-size="10.00">&#45; Training jobs</text>
<text text-anchor="middle" x="590" y="-248" font-family="Arial" font-size="10.00">&#45; Other GPU workloads</text>
<text text-anchor="middle" x="590" y="-237" font-family="Arial" font-size="10.00">When idle:</text>
<text text-anchor="middle" x="590" y="-226" font-family="Arial" font-size="10.00">Holder pod (ns: default)</text>
<text text-anchor="middle" x="590" y="-215" font-family="Arial" font-size="10.00">a3&#45;holder&#45;zone&#45;a requests</text>
<text text-anchor="middle" x="590" y="-204" font-family="Arial" font-size="10.00">all 8 GPUs to prevent</text>
<text text-anchor="middle" x="590" y="-193" font-family="Arial" font-size="10.00">node reclaim</text>
<text text-anchor="middle" x="590" y="-182" font-family="Arial" font-size="10.00">(currently: 0 replicas</text>
<text text-anchor="middle" x="590" y="-171" font-family="Arial" font-size="10.00">since vLLM holds node)</text>
</g>
<!-- remaining&#45;&gt;footer -->
</g>
</svg>
